<svg width="87" height="87" viewBox="0 0 87 87" fill="none" xmlns="http://www.w3.org/2000/svg">
<path d="M43.5 3.625C35.6135 3.625 27.904 5.96363 21.3466 10.3451C14.7892 14.7267 9.67835 20.9543 6.6603 28.2405C3.64226 35.5267 2.8526 43.5442 4.39119 51.2792C5.92977 59.0142 9.7275 66.1193 15.3041 71.6959C20.8807 77.2725 27.9858 81.0702 35.7208 82.6088C43.4558 84.1474 51.4733 83.3577 58.7595 80.3397C66.0457 77.3216 72.2733 72.2108 76.6549 65.6534C81.0364 59.096 83.375 51.3865 83.375 43.5C83.375 32.9245 79.1739 22.7821 71.6959 15.3041C64.2179 7.82611 54.0755 3.625 43.5 3.625ZM60.5629 53.3129L46.0629 67.8129C45.3831 68.4925 44.4612 68.8742 43.5 68.8742C42.5388 68.8742 41.6169 68.4925 40.9371 67.8129L26.4371 53.3129C26.0909 52.9785 25.8147 52.5785 25.6248 52.1362C25.4348 51.694 25.3348 51.2183 25.3306 50.737C25.3264 50.2556 25.4181 49.7783 25.6004 49.3328C25.7827 48.8873 26.0518 48.4826 26.3922 48.1422C26.7326 47.8018 27.1373 47.5327 27.5828 47.3504C28.0283 47.1681 28.5056 47.0764 28.987 47.0806C29.4683 47.0848 29.9439 47.1848 30.3862 47.3748C30.8285 47.5647 31.2285 47.8409 31.5629 48.1871L39.875 56.4993V21.75C39.875 20.7886 40.2569 19.8666 40.9367 19.1867C41.6166 18.5069 42.5386 18.125 43.5 18.125C44.4614 18.125 45.3834 18.5069 46.0633 19.1867C46.7431 19.8666 47.125 20.7886 47.125 21.75V56.4993L55.4371 48.1871C56.1208 47.5268 57.0365 47.1614 57.9869 47.1697C58.9374 47.1779 59.8466 47.5592 60.5187 48.2313C61.1908 48.9034 61.5721 49.8126 61.5803 50.763C61.5886 51.7135 61.2232 52.6292 60.5629 53.3129Z" fill="#9AE6B4"/>
</svg>
